<?xml version="1.0" encoding="UTF-8"?>
<svg xmlns="http://www.w3.org/2000/svg" xmlns:xlink="http://www.w3.org/1999/xlink" viewBox="0 0 24 24" width="24px" height="24px">
<g id="surface45872028">
<path style=" stroke:none;fill-rule:nonzero;fill:rgb(100%,100%,100%);fill-opacity:1;" d="M 12.070312 24.070312 C 5.441406 24.070312 0.0703125 18.695312 0.0703125 12.070312 C 0.0703125 5.441406 5.441406 0.0703125 12.070312 0.0703125 C 18.695312 0.0703125 24.070312 5.441406 24.070312 12.070312 C 24.070312 18.695312 18.695312 24.070312 12.070312 24.070312 Z M 12.070312 24.070312 "/>
<path style=" stroke:none;fill-rule:nonzero;fill:rgb(0%,0%,0%);fill-opacity:1;" d="M 10.753906 0.847656 C 5.554688 1.414062 1.375 5.59375 0.808594 10.679688 C 0.246094 15.992188 3.296875 20.738281 7.929688 22.542969 C 8.269531 22.65625 8.605469 22.433594 8.605469 21.980469 L 8.605469 20.171875 C 8.605469 20.171875 8.15625 20.285156 7.589844 20.285156 C 6.007812 20.285156 5.332031 18.929688 5.21875 18.136719 C 5.105469 17.6875 4.878906 17.347656 4.539062 17.007812 C 4.199219 16.894531 4.085938 16.894531 4.085938 16.78125 C 4.085938 16.554688 4.425781 16.554688 4.539062 16.554688 C 5.21875 16.554688 5.78125 17.347656 6.007812 17.6875 C 6.574219 18.589844 7.25 18.816406 7.589844 18.816406 C 8.042969 18.816406 8.382812 18.703125 8.605469 18.589844 C 8.71875 17.796875 9.058594 17.007812 9.738281 16.554688 C 7.136719 15.992188 5.21875 14.523438 5.21875 12.035156 C 5.21875 10.792969 5.78125 9.550781 6.574219 8.644531 C 6.460938 8.417969 6.347656 7.855469 6.347656 7.0625 C 6.347656 6.613281 6.347656 5.933594 6.6875 5.253906 C 6.6875 5.253906 8.269531 5.253906 9.851562 6.726562 C 10.414062 6.5 11.207031 6.386719 11.996094 6.386719 C 12.789062 6.386719 13.578125 6.5 14.257812 6.726562 C 15.726562 5.253906 17.421875 5.253906 17.421875 5.253906 C 17.648438 5.933594 17.648438 6.613281 17.648438 7.0625 C 17.648438 7.96875 17.535156 8.417969 17.421875 8.644531 C 18.210938 9.550781 18.777344 10.679688 18.777344 12.035156 C 18.777344 14.523438 16.855469 15.992188 14.257812 16.554688 C 14.933594 17.121094 15.386719 18.136719 15.386719 19.15625 L 15.386719 22.09375 C 15.386719 22.433594 15.726562 22.769531 16.179688 22.65625 C 20.359375 20.960938 23.296875 16.894531 23.296875 12.148438 C 23.296875 5.367188 17.535156 0.0585938 10.753906 0.847656 Z M 10.753906 0.847656 "/>
</g>
</svg>
